<?xml version="1.0" standalone="no"?>
<!DOCTYPE svg PUBLIC "-//W3C//DTD SVG 20010904//EN"
 "http://www.w3.org/TR/2001/REC-SVG-20010904/DTD/svg10.dtd">
<svg version="1.0" xmlns="http://www.w3.org/2000/svg"
 width="522.000000pt" height="522.000000pt" viewBox="0 0 522.000000 522.000000"
 preserveAspectRatio="xMidYMid meet">
<metadata>
Created by potrace 1.14, written by Peter Selinger 2001-2017
</metadata>
<g transform="translate(0.000000,522.000000) scale(0.100000,-0.100000)"
fill="#000000" stroke="none">
<path d="M2586 4298 c3 -5 -6 -6 -20 -2 -14 3 -26 2 -26 -3 0 -5 -19 -7 -41
-5 -33 4 -40 2 -33 -9 6 -11 4 -11 -10 0 -15 13 -19 13 -27 0 -7 -12 -10 -12
-18 0 -6 10 -13 10 -29 2 -11 -6 -41 -12 -66 -12 -25 -1 -43 -6 -40 -11 8 -12
-19 -5 -28 7 -5 6 -8 6 -8 -2 0 -6 -11 -10 -25 -9 -13 2 -22 -1 -19 -5 8 -14
-10 -11 -25 4 -8 8 -11 8 -9 1 2 -7 0 -11 -3 -10 -3 0 -14 -6 -24 -14 -11 -9
-16 -10 -11 -2 4 7 1 12 -9 12 -9 0 -14 -4 -11 -8 2 -4 -11 -7 -30 -7 -29 1
-32 -1 -21 -13 10 -13 9 -14 -10 -3 -17 9 -23 9 -23 0 0 -9 -3 -9 -14 0 -11 9
-16 9 -22 0 -5 -8 -3 -9 6 -4 9 6 11 4 6 -4 -5 -7 -14 -10 -22 -7 -8 3 -14 1
-14 -5 0 -6 -8 -5 -21 2 -17 9 -20 8 -14 -2 6 -9 3 -11 -8 -6 -9 3 -19 2 -23
-4 -3 -6 -13 -8 -21 -5 -8 3 -12 2 -9 -3 7 -10 -22 -24 -34 -16 -4 3 -13 -2
-20 -11 -11 -12 -15 -12 -21 -2 -7 10 -9 10 -9 1 0 -7 -7 -13 -15 -13 -8 0
-15 -6 -15 -12 0 -9 -4 -8 -10 2 -8 13 -14 8 -12 -11 1 -3 -10 -5 -24 -3 -19
2 -24 -1 -20 -12 5 -12 2 -12 -15 -3 -13 7 -19 7 -15 1 3 -6 2 -13 -4 -17 -5
-3 -10 0 -10 7 0 10 -3 9 -9 -2 -6 -8 -7 -19 -3 -25 3 -5 -2 -4 -11 4 -11 9
-17 10 -17 2 0 -6 -5 -11 -11 -11 -5 0 -7 5 -3 12 4 7 3 8 -5 4 -9 -6 -9 -11
1 -24 11 -13 10 -14 -9 -4 -17 9 -22 9 -27 -3 -3 -8 -9 -15 -13 -14 -19 3 -34
-2 -29 -10 3 -5 -1 -12 -10 -15 -10 -4 -13 -2 -8 7 6 9 4 9 -8 -1 -8 -7 -22
-11 -29 -9 -8 2 -11 2 -6 0 14 -9 7 -25 -9 -19 -8 3 -12 2 -9 -4 3 -6 -3 -10
-14 -10 -12 0 -21 -5 -21 -11 0 -5 -4 -7 -10 -4 -5 3 -10 1 -10 -4 0 -6 -7
-11 -15 -11 -9 0 -18 -7 -21 -15 -4 -8 -10 -12 -15 -9 -5 3 -9 0 -9 -6 0 -6
-5 -8 -12 -4 -7 5 -9 2 -5 -8 4 -12 1 -14 -15 -10 -13 3 -19 1 -15 -5 8 -12
-17 -36 -26 -26 -4 3 -18 -6 -32 -21 -14 -15 -30 -24 -37 -20 -6 4 -8 3 -5 -3
4 -6 -1 -17 -10 -24 -14 -12 -16 -12 -9 1 4 8 -1 5 -10 -7 -9 -13 -22 -23 -29
-23 -7 0 -19 -8 -26 -17 -11 -15 -11 -16 1 -5 8 6 19 12 24 12 6 0 0 -7 -12
-16 -12 -8 -26 -12 -32 -9 -6 4 -7 -1 -3 -11 5 -13 2 -15 -18 -9 -24 7 -24 7
-4 -10 18 -15 18 -16 1 -11 -13 5 -17 2 -13 -8 4 -10 0 -14 -14 -11 -15 3 -19
0 -15 -10 3 -9 -1 -12 -15 -10 -18 4 -19 2 -8 -11 10 -12 10 -15 -2 -12 -8 2
-13 -3 -11 -11 3 -12 0 -12 -12 -2 -12 10 -14 8 -12 -13 2 -18 -1 -23 -12 -18
-10 3 -13 1 -8 -6 4 -7 2 -12 -3 -12 -6 0 -13 0 -16 0 -7 0 -45 -39 -45 -45 0
-3 12 2 27 11 l28 16 -24 -20 c-14 -11 -32 -17 -40 -14 -9 3 -13 2 -9 -3 4 -4
0 -14 -10 -22 -9 -8 -11 -12 -4 -8 6 3 12 1 12 -4 0 -6 -7 -11 -15 -11 -8 0
-15 -7 -15 -16 0 -9 -5 -12 -12 -8 -9 5 -8 2 1 -9 12 -15 12 -17 -4 -10 -14 5
-17 3 -13 -8 3 -8 -3 -25 -13 -38 -11 -13 -19 -19 -19 -15 -1 5 -8 -4 -18 -21
-16 -30 -18 -36 -21 -56 0 -5 -5 -8 -10 -4 -6 3 -8 -4 -6 -16 2 -12 2 -19 -2
-15 -9 9 -35 -32 -28 -44 3 -6 2 -10 -3 -10 -5 0 -14 -12 -20 -26 -10 -20 -10
-24 0 -19 7 4 5 0 -6 -9 -11 -9 -16 -22 -12 -31 3 -9 2 -14 -3 -11 -5 3 -12
-1 -15 -10 -4 -10 -2 -13 7 -9 6 4 3 -1 -7 -9 -15 -12 -16 -16 -5 -16 11 -1
10 -3 -3 -10 -11 -7 -15 -19 -12 -36 3 -18 1 -23 -7 -18 -9 5 -10 2 -6 -9 3
-10 2 -17 -4 -17 -5 0 -7 -11 -5 -25 3 -14 1 -23 -4 -20 -5 3 -11 1 -15 -5 -3
-5 -1 -10 6 -10 8 0 8 -4 1 -13 -6 -7 -7 -18 -3 -26 5 -7 7 -21 6 -30 -1 -9 0
-11 2 -5 2 7 13 14 24 17 15 4 18 2 10 -7 -6 -7 -7 -17 -3 -21 4 -5 2 -5 -4
-2 -7 4 -17 0 -24 -8 -7 -8 -17 -12 -23 -8 -6 4 -8 0 -4 -10 4 -10 2 -17 -5
-17 -7 0 -7 -4 1 -14 10 -11 8 -17 -6 -25 -12 -7 -13 -10 -4 -11 10 0 10 -6
-4 -26 -9 -15 -12 -23 -6 -20 6 4 11 3 11 -3 0 -5 -4 -12 -8 -15 -10 -6 -9
-42 1 -52 10 -10 9 -26 -1 -20 -10 6 -9 -30 1 -40 9 -10 9 -26 -1 -21 -4 3 -7
-6 -7 -19 0 -14 6 -24 14 -24 11 0 9 -4 -5 -15 -10 -8 -14 -15 -7 -15 7 0 10
-6 7 -14 -3 -8 -1 -24 6 -35 8 -16 8 -21 -1 -21 -8 0 -9 -4 0 -13 6 -8 8 -17
4 -20 -3 -4 0 -7 8 -7 11 0 11 -2 -1 -10 -13 -9 -13 -10 0 -10 13 0 13 -1 0
-10 -11 -7 -11 -10 -2 -10 7 0 10 -4 7 -10 -3 -5 -2 -10 4 -10 6 0 8 -7 5 -15
-4 -8 -1 -22 6 -30 10 -12 10 -15 0 -15 -10 0 -10 -3 0 -15 7 -8 10 -22 6 -30
-3 -9 -2 -13 3 -10 5 3 12 1 16 -5 3 -5 1 -10 -5 -10 -7 0 -5 -7 4 -16 18 -17
21 -28 6 -19 -6 3 -7 -1 -4 -9 3 -9 10 -16 15 -16 4 0 6 -6 3 -14 -3 -7 2 -21
11 -30 10 -9 12 -16 5 -16 -7 0 -5 -7 5 -16 9 -9 14 -23 11 -31 -3 -8 -1 -11
4 -8 6 3 10 -3 10 -14 0 -12 5 -21 11 -21 5 0 7 -5 4 -10 -3 -5 -1 -10 6 -10
7 0 10 -3 6 -6 -3 -4 1 -13 9 -21 8 -9 13 -21 11 -27 -5 -13 18 -38 27 -29 3
4 4 -8 2 -25 -3 -25 -1 -30 9 -22 9 8 16 2 26 -22 7 -18 20 -39 29 -46 8 -8 9
-11 3 -7 -9 4 -11 1 -7 -9 3 -9 11 -13 17 -9 6 4 8 -2 5 -15 -4 -14 -2 -19 7
-15 16 6 34 -26 28 -47 -3 -8 1 -6 10 5 15 19 16 19 13 -8 -2 -15 1 -30 7 -34
6 -3 7 -1 3 5 -4 7 -2 12 3 12 6 0 11 -9 11 -21 0 -11 5 -17 10 -14 6 3 10 1
10 -5 0 -6 5 -8 11 -4 8 4 9 -1 4 -17 -7 -22 -7 -23 10 -9 11 9 16 10 11 3 -5
-9 -1 -13 11 -14 10 0 13 -3 6 -6 -10 -3 -10 -7 0 -18 7 -7 15 -11 20 -8 4 2
7 -3 7 -11 0 -14 16 -20 41 -18 3 0 4 -13 3 -29 -1 -16 2 -26 7 -23 5 3 7 10
4 15 -3 5 1 6 9 3 9 -3 13 -11 9 -17 -4 -6 0 -8 10 -4 11 4 14 2 11 -7 -3 -7
2 -16 10 -19 9 -4 16 -14 16 -24 0 -15 2 -16 10 -3 8 13 10 12 10 -3 0 -10 4
-16 9 -13 5 3 11 -4 14 -15 3 -12 9 -19 14 -16 5 3 9 -3 9 -13 0 -15 -4 -16
-18 -9 -12 6 -18 6 -18 0 0 -5 -12 -8 -26 -5 -14 3 -23 1 -20 -4 3 -5 -1 -9
-9 -9 -8 0 -12 4 -10 8 3 4 -2 10 -11 13 -10 4 -13 2 -8 -7 4 -6 -7 1 -25 18
-21 19 -30 24 -26 12 5 -13 3 -16 -8 -11 -8 3 -18 0 -22 -6 -4 -6 -16 -8 -27
-4 -15 4 -18 3 -13 -6 5 -9 4 -11 -3 -6 -26 16 -52 15 -53 -2 0 -12 -2 -13 -6
-4 -4 10 -12 7 -31 -10 -14 -13 -22 -17 -17 -9 5 9 3 12 -6 9 -8 -3 -13 -14
-11 -24 2 -14 0 -15 -6 -6 -11 16 -34 12 -45 -8 -4 -9 -6 -5 -4 12 5 31 -12
33 -30 3 -7 -12 -12 -15 -13 -6 0 9 -5 8 -17 -6 -10 -10 -15 -14 -10 -9 13 18
7 27 -12 16 -14 -7 -21 -6 -24 3 -3 6 -6 3 -6 -8 -1 -17 -3 -17 -11 -5 -7 11
-10 11 -10 2 0 -7 -4 -11 -9 -7 -5 3 -15 -1 -23 -8 -7 -8 -19 -12 -27 -9 -9 3
-12 0 -9 -10 4 -10 0 -14 -15 -13 -12 1 -28 -5 -35 -14 -8 -9 -11 -10 -7 -3 3
6 1 12 -4 12 -6 0 -11 -8 -11 -17 0 -16 -2 -16 -11 -3 -9 12 -10 10 -6 -8 3
-13 3 -21 0 -18 -4 3 -17 -1 -30 -9 -13 -9 -23 -11 -23 -5 0 5 5 10 12 10 6 0
8 3 4 7 -4 5 -14 -1 -22 -11 -8 -11 -14 -14 -14 -8 0 7 -5 12 -11 12 -5 0 -7
-4 -4 -10 3 -5 1 -10 -5 -10 -6 0 -8 -5 -4 -12 4 -7 3 -8 -4 -4 -6 4 -10 12
-8 19 1 7 1 9 -1 4 -3 -4 -9 -5 -13 -2 -5 3 -12 0 -16 -6 -5 -8 -3 -9 7 -4 12
8 12 6 0 -8 -7 -9 -17 -15 -21 -12 -5 3 -12 0 -16 -6 -4 -8 -3 -9 4 -5 7 4 12
2 12 -3 0 -6 -7 -11 -15 -11 -8 0 -15 -5 -15 -11 0 -5 -5 -7 -12 -3 -7 5 -9 2
-6 -8 5 -11 0 -14 -20 -12 -26 3 -26 2 -7 -13 16 -13 17 -15 2 -10 -9 4 -17 2
-17 -4 0 -6 -7 -9 -15 -5 -8 3 -14 2 -14 -2 3 -19 -2 -25 -11 -12 -8 13 -10
12 -10 -2 0 -10 -3 -17 -7 -16 -16 3 -43 -15 -36 -25 3 -6 1 -7 -5 -3 -11 7
-17 -6 -13 -27 1 -5 -3 -6 -9 -2 -7 4 -7 12 0 25 9 17 6 18 -24 17 -19 -1 -32
-5 -30 -8 2 -4 -2 -9 -10 -12 -8 -3 -13 -14 -11 -24 2 -10 4 -21 4 -25 1 -12
31 -9 31 3 0 5 5 7 10 4 6 -4 8 -12 4 -18 -3 -7 1 -4 9 6 8 9 19 17 25 17 6 0
13 6 16 13 3 6 3 2 1 -9 -4 -16 0 -23 14 -27 15 -4 18 -1 13 12 -5 14 -4 14
12 2 15 -12 17 -12 14 0 -2 8 4 13 15 13 9 -1 17 4 17 12 0 7 8 11 19 9 11 -2
22 3 26 13 6 15 8 15 21 -2 13 -19 14 -19 14 5 0 17 3 20 9 10 6 -9 11 -10 15
-2 4 6 21 11 37 11 18 0 28 -4 24 -10 -3 -6 -2 -10 4 -10 5 0 15 8 20 18 6 10
11 12 11 4 0 -7 4 -11 9 -7 5 3 12 1 15 -4 4 -5 18 -6 34 -2 19 6 30 3 39 -8
11 -14 12 -14 13 3 0 20 0 20 16 0 8 -10 13 -14 10 -8 -3 7 2 18 11 25 9 8 14
9 10 3 -4 -7 2 -14 14 -17 15 -4 23 1 29 19 5 13 12 24 14 24 3 0 2 -8 -1 -17
-6 -16 -5 -16 10 -4 11 9 17 10 17 2 0 -6 5 -11 11 -11 5 0 7 5 4 10 -6 10 15
15 44 10 8 -1 18 4 23 12 7 10 8 9 4 -4 -3 -10 -1 -18 4 -18 6 0 10 5 10 11 0
8 6 7 17 -2 9 -8 14 -9 10 -3 -4 7 0 15 9 18 8 3 12 2 9 -4 -3 -6 1 -7 9 -4 9
3 13 10 10 15 -3 5 2 6 10 3 9 -3 16 -11 16 -16 0 -6 8 -4 17 3 11 9 14 10 9
2 -5 -9 -2 -11 8 -7 9 3 13 10 10 15 -3 5 2 6 11 3 8 -4 21 -1 28 4 7 6 18 7
26 2 18 -11 43 -1 34 14 -3 6 3 3 14 -7 18 -16 21 -16 33 -1 8 9 23 14 37 11
19 -3 21 -2 12 10 -10 11 -8 12 12 5 33 -11 55 -9 51 7 -2 9 3 11 14 7 13 -5
14 -4 6 7 -8 10 -6 13 9 14 11 1 17 -2 14 -7 -3 -6 1 -7 9 -4 10 4 16 1 16 -7
0 -11 3 -11 10 1 6 9 10 10 10 3 0 -8 10 -9 36 -2 19 6 41 8 47 6 7 -2 20 3
30 12 10 8 18 11 17 6 -5 -24 1 -27 15 -9 9 12 14 14 15 6 0 -9 7 -11 20 -7
11 3 20 2 20 -3 0 -6 7 -13 16 -16 8 -3 13 -2 10 3 -3 5 1 11 9 15 8 3 15 0
15 -6 0 -7 5 -6 15 2 12 10 15 10 15 -1 0 -8 6 -6 16 7 8 10 13 14 10 8 -3 -7
1 -15 10 -18 8 -3 12 -2 9 3 -3 5 -1 12 5 16 5 3 10 1 10 -5 0 -7 7 -10 15 -6
8 3 15 0 15 -6 0 -7 4 -7 14 1 10 9 16 9 21 1 4 -7 11 -8 18 -2 15 12 67 13
89 1 17 -9 60 1 59 14 -2 21 2 23 34 21 26 -2 34 0 28 9 -5 9 -3 9 8 1 18 -13
69 -17 69 -5 0 14 27 7 52 -15 18 -15 20 -15 9 -1 -17 22 -3 22 28 0 14 -9 21
-11 17 -5 -4 7 -2 12 3 12 6 0 11 -6 11 -12 0 -9 4 -8 10 2 5 8 10 10 10 5 0
-6 10 -16 23 -24 17 -10 19 -11 10 0 -19 19 -16 33 3 15 19 -19 35 -21 30 -3
-1 6 -1 9 2 4 2 -4 13 -12 24 -18 12 -7 18 -7 14 -1 -3 5 1 13 10 16 8 3 12 2
9 -4 -4 -6 1 -7 11 -3 13 5 15 3 9 -7 -5 -9 -4 -11 4 -6 9 6 9 12 -1 24 -7 9
0 7 16 -6 29 -22 51 -21 42 4 -3 8 -3 14 0 14 2 0 9 -10 14 -22 7 -18 9 -19 9
-5 1 15 5 16 21 7 16 -9 20 -8 20 5 0 9 5 13 10 10 6 -4 8 -10 6 -14 -3 -4 9
-5 26 -3 21 3 29 1 24 -7 -5 -7 3 -10 23 -7 16 2 35 0 42 -5 19 -11 32 0 19
16 -8 10 -8 15 1 21 8 4 9 3 5 -4 -11 -17 3 -14 22 4 12 12 17 13 20 4 3 -7
-1 -16 -8 -20 -9 -5 -9 -9 -1 -14 6 -4 11 -2 11 4 0 6 5 8 12 4 7 -4 8 -3 4 4
-5 8 -2 10 9 6 11 -4 12 -10 6 -18 -8 -9 -1 -11 24 -8 19 2 33 8 30 12 -3 4 2
10 10 13 10 4 12 1 9 -11 -5 -15 -4 -15 8 -1 7 9 19 14 27 11 9 -3 11 0 6 8
-4 7 4 4 19 -5 14 -10 26 -14 26 -11 0 4 10 2 21 -5 15 -8 19 -8 15 0 -4 6 -2
11 3 11 6 0 11 -4 11 -9 0 -5 11 -8 24 -7 16 0 21 5 15 11 -5 5 -9 13 -9 17 0
5 11 -3 25 -17 27 -26 41 -33 29 -14 -3 6 1 10 12 9 35 -4 45 0 38 13 -5 7 -2
7 10 -2 14 -12 17 -12 14 -1 -2 8 5 16 16 18 13 3 16 0 10 -10 -6 -10 -5 -11
7 -1 13 10 18 7 33 -17 18 -31 30 -37 41 -20 9 14 35 0 35 -19 0 -14 2 -14 10
-1 8 12 10 12 10 1 0 -11 3 -11 15 -1 9 7 18 10 21 7 4 -3 13 1 22 9 11 12 17
12 22 4 6 -9 9 -9 11 -1 3 7 19 13 36 13 18 1 31 4 29 7 -2 3 7 7 21 7 17 2
23 -2 19 -12 -3 -7 0 -16 6 -20 6 -4 8 -3 4 4 -3 6 -2 13 4 17 5 3 10 1 10 -4
0 -6 3 -10 8 -10 19 3 33 -2 27 -10 -3 -5 0 -13 6 -17 8 -5 9 -3 4 6 -5 8 -3
11 6 8 8 -3 13 -11 11 -17 -1 -7 2 -10 7 -7 5 4 12 2 16 -3 3 -6 12 -8 21 -4
12 4 12 8 2 22 -8 11 -5 10 10 -3 15 -13 22 -15 22 -6 0 10 4 10 18 -2 19 -16
30 -17 50 -5 7 5 12 4 12 -3 0 -6 5 -8 13 -3 19 12 38 12 31 1 -4 -7 8 -9 35
-6 22 2 41 1 41 -2 0 -3 17 -5 37 -4 21 1 41 -2 44 -8 4 -6 14 -5 28 3 17 12
25 12 42 1 12 -8 18 -9 14 -3 -3 6 -1 11 4 11 6 0 11 -6 11 -12 0 -9 4 -8 10
2 9 13 10 13 10 0 0 -13 1 -13 10 0 8 12 10 12 10 1 0 -11 3 -11 17 0 11 10
14 10 9 1 -5 -8 2 -12 24 -12 22 0 29 -4 24 -12 -5 -9 -2 -9 9 1 14 11 17 11
17 0 1 -11 3 -10 13 2 7 9 18 14 26 11 8 -2 18 3 23 12 6 11 14 14 26 7 21
-11 60 3 68 24 4 8 10 15 16 15 5 0 6 -4 3 -10 -3 -6 1 -7 9 -4 9 3 16 11 16
17 0 6 6 3 13 -8 11 -14 16 -15 22 -5 5 9 9 9 14 1 4 -6 24 -12 45 -13 28 -1
36 -5 31 -16 -4 -12 -3 -13 10 -2 12 10 15 10 16 -1 0 -8 4 -5 8 6 8 19 8 19
16 -4 5 -18 9 -21 16 -10 7 11 9 9 9 -6 0 -17 2 -17 10 -5 6 10 10 11 10 3 0
-7 5 -13 11 -13 6 0 8 7 4 18 -5 13 -4 14 6 5 9 -9 19 -9 44 2 24 9 36 10 44
2 8 -8 11 -7 11 2 0 10 3 11 14 2 11 -9 15 -9 19 1 3 8 6 6 6 -6 1 -12 6 -16
16 -12 9 3 33 0 55 -8 27 -9 37 -10 33 -2 -4 7 -1 6 8 -1 12 -10 18 -10 27 -1
9 9 12 9 12 -1 0 -7 4 -10 9 -6 5 3 12 1 15 -4 3 -5 15 -7 26 -4 11 3 17 9 15
14 -7 10 27 4 54 -10 11 -6 27 -8 37 -4 12 4 15 3 10 -5 -4 -7 -3 -12 3 -12 5
0 13 5 16 10 5 8 12 7 23 -2 12 -10 14 -10 8 0 -4 6 -2 12 3 12 6 0 11 -5 11
-11 0 -6 8 -9 18 -7 9 2 23 -3 30 -12 8 -8 11 -10 8 -4 -3 7 5 12 21 12 15 0
29 5 31 11 2 6 11 11 20 11 15 0 15 2 2 10 -10 6 -11 10 -2 10 6 0 12 6 12 14
0 8 5 18 12 22 7 4 8 3 4 -4 -5 -8 -2 -10 8 -6 9 3 13 11 9 18 -4 6 1 5 10 -3
9 -7 17 -10 17 -5 0 5 5 2 10 -6 9 -13 10 -13 10 0 0 13 1 13 10 0 7 -11 10
-11 10 -2 0 7 4 11 9 8 5 -3 9 5 9 19 0 14 -4 22 -9 19 -5 -3 -9 -1 -9 4 0 5
-11 8 -25 7 -14 -2 -25 1 -25 6 0 5 -3 8 -7 8 -30 -5 -63 3 -63 15 0 9 -9 13
-25 11 -14 -1 -25 2 -25 8 0 5 -7 4 -15 -3 -12 -10 -15 -10 -15 1 0 11 -2 11
-10 -1 -8 -13 -13 -9 -12 10 0 3 -13 5 -29 5 -19 0 -29 -5 -29 -15 0 -9 -6 -7
-16 8 -13 18 -19 21 -30 11 -11 -9 -14 -9 -14 1 0 8 -12 11 -34 8 -19 -2 -33
-1 -30 3 2 4 -5 9 -16 12 -13 3 -18 1 -13 -6 4 -7 -1 -6 -10 2 -9 7 -23 11
-32 7 -8 -3 -14 -2 -14 2 3 19 -2 25 -11 12 -8 -12 -10 -12 -10 -1 0 11 -3 11
-15 1 -10 -9 -15 -9 -15 -1 0 6 -5 11 -11 11 -5 0 -7 -5 -4 -10 6 -10 -15 -10
-25 0 -16 16 -58 27 -73 18 -11 -6 -17 -5 -17 2 0 7 -6 8 -18 1 -12 -6 -23 -5
-36 5 -17 12 -21 11 -33 -4 -10 -13 -12 -13 -8 -2 4 11 -1 16 -15 16 -11 0
-20 -5 -20 -10 0 -5 -9 0 -19 11 -14 15 -27 19 -47 15 -19 -3 -25 -1 -20 7 10
16 0 14 -31 -6 -15 -10 -24 -13 -21 -8 4 6 -2 11 -12 11 -15 0 -17 -3 -7 -15
10 -12 9 -13 -10 -3 -26 14 -36 15 -29 3 4 -5 -4 -7 -16 -3 -16 4 -19 2 -13
-9 8 -12 6 -12 -8 0 -9 7 -15 17 -12 21 3 5 -1 11 -7 14 -7 4 -3 4 9 2 14 -2
20 0 17 9 -3 7 0 16 7 21 8 5 10 3 4 -7 -7 -11 -6 -12 7 -2 8 7 19 9 23 5 5
-4 5 1 2 10 -4 13 -2 15 10 11 10 -4 14 -2 10 4 -4 6 3 13 14 16 12 3 18 10
14 16 -4 7 1 8 12 4 16 -6 16 -5 4 10 -12 15 -12 17 3 11 11 -4 25 3 41 20 14
15 30 24 36 20 8 -4 9 1 4 17 -7 23 -7 24 9 4 15 -20 15 -19 11 5 -4 24 -4 25
11 5 16 -20 16 -19 9 4 -5 16 -4 21 4 17 6 -4 11 -2 11 3 0 6 6 10 13 8 7 -1
11 8 11 23 -2 23 -1 23 13 5 13 -19 14 -18 9 8 -4 24 -3 27 9 17 11 -10 13 -7
9 14 -2 15 0 26 6 26 6 0 8 -4 5 -10 -3 -5 0 -10 8 -10 22 0 27 11 16 33 -8
14 -8 18 0 13 6 -4 11 -1 11 6 0 11 2 10 9 0 6 -11 10 -10 15 4 4 10 1 21 -6
27 -9 6 -7 7 8 4 15 -3 21 0 20 12 -1 10 6 15 17 15 15 -2 16 1 5 14 -11 14
-10 15 6 9 17 -7 17 -6 5 10 -9 11 -10 14 -1 9 11 -6 17 5 13 27 0 4 4 8 9 8
6 1 15 3 20 4 6 1 13 3 16 4 4 0 0 9 -7 18 -12 15 -12 16 3 10 11 -4 15 -2 12
7 -3 7 2 19 10 26 9 7 13 16 10 21 -3 5 3 6 13 2 15 -6 16 -4 5 9 -11 13 -10
16 5 14 14 -1 18 6 18 31 0 26 2 30 17 22 14 -7 16 -5 13 11 -2 11 -7 26 -11
33 -5 8 -2 7 9 -2 15 -12 17 -12 11 4 -6 14 -4 16 7 10 12 -8 12 -6 0 8 -12
15 -12 17 2 12 8 -4 18 -1 23 6 4 8 3 10 -4 5 -7 -4 -12 -2 -12 3 0 6 5 11 11
11 5 0 7 5 4 10 -3 6 -1 10 6 10 7 0 9 10 7 25 -3 13 -2 24 1 23 19 -2 24 4
11 12 -13 8 -12 10 4 10 11 0 16 3 13 7 -4 3 -2 11 3 18 5 6 10 25 12 43 2 24
5 29 15 20 11 -9 12 -6 3 16 -5 15 -6 25 -1 21 5 -3 12 -1 16 5 3 5 1 10 -5
10 -6 0 -8 5 -5 10 4 6 10 8 15 5 4 -3 6 4 3 15 -3 11 0 20 6 20 6 0 11 5 11
11 0 5 -4 8 -9 4 -18 -10 -21 13 -4 26 11 10 14 10 9 2 -5 -9 -2 -11 10 -6 14
5 13 8 -6 18 -14 7 -18 14 -11 16 7 3 13 11 14 19 2 8 6 21 11 29 5 8 4 16 -4
21 -9 5 -9 9 -1 14 6 4 11 12 11 17 0 6 -6 7 -12 3 -10 -6 -10 -4 0 8 7 9 12
22 11 30 -3 26 1 39 12 32 6 -3 4 4 -5 18 -14 22 -14 26 1 48 10 15 12 20 3
15 -10 -6 -12 -3 -8 12 3 11 1 28 -5 38 -8 15 -7 17 7 12 16 -6 16 -5 1 15
-18 26 -20 42 -4 32 8 -5 8 -1 0 14 -6 11 -8 28 -4 38 4 10 2 15 -3 11 -6 -3
-11 10 -11 30 -1 20 -7 39 -15 44 -8 6 -9 9 -1 9 12 0 12 10 -1 48 -4 12 -12
20 -17 17 -5 -3 -6 1 -3 9 3 9 11 13 18 10 6 -3 3 1 -7 9 -9 8 -15 21 -12 29
4 9 -1 22 -9 30 -11 12 -12 18 -3 28 9 10 9 11 0 6 -9 -5 -13 0 -13 14 0 13
-4 19 -11 14 -8 -5 -8 -1 0 14 14 25 14 43 1 22 -8 -12 -10 -10 -11 10 -1 14
-1 28 0 33 1 10 -13 9 -27 -3 -9 -7 -9 -7 -2 2 12 15 13 31 1 24 -5 -3 -9 0
-8 7 0 6 -1 26 -2 42 -2 27 -3 28 -12 10 -8 -17 -9 -16 -5 8 3 23 -1 30 -21
38 -20 7 -23 12 -14 23 9 11 9 16 0 22 -8 5 -9 3 -4 -6 6 -9 4 -11 -4 -6 -7 5
-10 15 -7 23 4 9 2 11 -6 7 -8 -5 -9 -2 -5 9 3 9 1 19 -5 23 -7 4 -8 3 -4 -4
4 -7 3 -12 -2 -12 -13 0 -24 29 -15 42 3 6 1 8 -5 4 -6 -3 -13 3 -17 14 -3 11
-14 20 -23 20 -15 0 -15 2 -2 10 13 8 13 10 -1 10 -9 0 -25 12 -35 28 -17 26
-17 27 1 12 17 -14 17 -14 5 7 -8 12 -18 19 -22 17 -4 -3 -8 0 -8 6 0 6 -4 9
-9 5 -5 -3 -13 0 -17 6 -4 8 -3 9 4 5 16 -10 15 2 -2 19 -7 8 -17 11 -21 7 -5
-4 -5 2 -1 12 6 17 5 17 -10 5 -16 -13 -16 -12 -5 10 8 15 9 21 2 17 -10 -7
-16 6 -12 27 1 5 -3 6 -8 2 -6 -3 -7 -13 -4 -23 7 -18 5 -17 -17 12 -10 13
-10 17 -2 12 6 -4 12 -2 12 3 0 6 -10 11 -22 11 -19 0 -20 2 -8 10 12 8 11 10
-6 10 -12 0 -28 8 -35 18 -13 15 -12 16 4 3 15 -12 17 -12 11 3 -3 9 -16 16
-28 16 -17 0 -18 2 -6 10 12 8 11 10 -7 10 -12 0 -25 4 -28 10 -3 6 1 7 12 4
15 -4 14 -3 -2 7 -24 15 -35 30 -29 41 3 4 -3 5 -12 1 -13 -5 -15 -3 -9 8 7
11 6 12 -6 2 -19 -15 -40 2 -32 25 4 10 2 13 -5 8 -7 -4 -12 -2 -12 4 0 6 -4
8 -10 5 -5 -3 -10 2 -10 12 0 12 -3 14 -8 6 -6 -9 -12 -7 -22 7 -11 16 -17 17
-29 7 -12 -10 -13 -9 -7 1 9 14 -29 62 -48 62 -6 0 -4 -5 4 -10 9 -6 10 -10 3
-10 -15 0 -45 29 -39 39 3 4 -1 8 -9 8 -12 0 -12 -3 -3 -16 7 -9 0 -5 -16 9
-15 14 -29 24 -32 23 -12 -7 -34 12 -34 29 0 10 -5 16 -10 13 -6 -4 -8 -10 -6
-14 3 -4 -1 -8 -9 -8 -8 0 -14 3 -13 6 3 27 -3 33 -17 21 -13 -11 -14 -10 -9
4 7 19 -21 23 -30 4 -3 -7 -3 -2 1 12 5 23 5 24 -12 10 -17 -14 -18 -13 -12 2
3 10 1 20 -5 24 -7 5 -8 2 -3 -6 6 -10 4 -12 -9 -7 -10 4 -22 7 -27 7 -6 0 -7
5 -4 10 4 6 11 7 17 4 7 -4 8 -2 4 4 -5 9 -13 9 -26 2 -26 -14 -35 -12 -21 4
9 11 6 13 -14 11 -14 -2 -25 0 -25 5 0 4 -11 6 -25 5 -14 -2 -23 1 -19 6 3 5
11 6 17 3 7 -4 9 -3 4 1 -4 5 -18 10 -30 12 -12 2 -23 8 -25 13 -2 5 -10 6
-18 3 -8 -3 -14 1 -14 8 0 11 -3 11 -10 -1 -7 -11 -10 -11 -10 -2 0 7 -4 10
-10 7 -5 -3 -10 -2 -10 3 0 16 -46 32 -58 20 -8 -8 -13 -7 -18 5 -3 9 -10 14
-15 11 -5 -3 -9 0 -9 6 0 7 -6 8 -17 2 -11 -7 -21 -5 -31 4 -7 8 -18 12 -23 9
-5 -4 -9 0 -9 7 0 9 -3 9 -10 -2 -8 -13 -10 -12 -10 3 0 10 -5 15 -10 12 -6
-4 -18 -1 -27 7 -12 9 -15 9 -9 1 4 -7 2 -13 -3 -13 -6 0 -11 8 -12 18 0 10
-3 12 -6 5 -2 -7 -11 -13 -19 -13 -8 0 -14 6 -14 13 0 8 -4 7 -10 -3 -8 -13
-10 -12 -10 5 0 14 -3 16 -11 8 -8 -8 -20 -8 -43 2 -17 7 -37 10 -43 8 -7 -3
-13 1 -13 9 0 10 -3 9 -10 -2 -9 -13 -12 -12 -25 4 -15 20 -15 20 -15 0 -1
-18 -1 -18 -11 0 -9 15 -13 16 -20 5 -6 -10 -9 -10 -9 -2 0 7 -7 10 -17 6 -11
-5 -14 -3 -8 6 6 10 3 11 -14 2 -16 -9 -21 -9 -21 0 0 8 -4 8 -15 -1 -12 -10
-15 -10 -15 0 0 8 -3 10 -7 7 -3 -4 -13 -1 -21 6 -10 8 -13 8 -9 1 4 -7 0 -15
-9 -18 -11 -4 -15 -2 -11 6 3 8 -4 13 -18 13 -16 0 -21 -4 -17 -15 5 -13 3
-13 -11 -1 -9 7 -23 11 -32 7 -8 -3 -14 0 -12 6 2 13 -22 18 -38 8 -13 -8 -27
-7 -44 4 -10 6 -12 6 -7 -3 9 -15 -25 -11 -36 3 -4 6 -13 4 -22 -3 -13 -11
-16 -11 -16 0 0 12 -2 12 -9 0 -7 -11 -9 -11 -14 0 -4 10 -6 10 -6 2 -1 -7 -8
-13 -17 -13 -9 0 -12 5 -8 13 5 8 2 8 -9 -2 -9 -7 -17 -9 -17 -4 0 5 -7 10
-15 10 -8 0 -12 -4 -9 -9z m-2009 -3363 c0 -8 -4 -12 -9 -9 -5 3 -6 10 -3 15
9 13 12 11 12 -6z"/>
<path d="M4000 3966 c0 -2 7 -9 15 -16 9 -7 15 -8 15 -2 0 5 -7 12 -15 16 -8
3 -15 4 -15 2z"/>
<path d="M4275 3781 c-3 -5 -2 -12 3 -15 5 -3 9 1 9 9 0 17 -3 19 -12 6z"/>
<path d="M4655 1740 c-3 -5 -1 -10 4 -10 6 0 11 5 11 10 0 6 -2 10 -4 10 -3 0
-8 -4 -11 -10z"/>
<path d="M4305 1330 c-3 -6 1 -7 9 -4 18 7 21 14 7 14 -6 0 -13 -4 -16 -10z"/>
<path d="M2970 1040 c0 -5 5 -10 11 -10 5 0 7 5 4 10 -3 6 -8 10 -11 10 -2 0
-4 -4 -4 -10z"/>
<path d="M2436 1022 c-3 -5 1 -9 9 -9 8 0 12 4 9 9 -3 4 -7 8 -9 8 -2 0 -6 -4
-9 -8z"/>
</g>
</svg>
